<svg xmlns="http://www.w3.org/2000/svg" viewBox="0 0 220.92 30.16"><title>Asset 1</title><g id="Layer_2" data-name="Layer 2"><g id="LAYOUT"><path d="M47.21,30.16C38.41,30.16,33,23.88,33,15.08S38.41,0,47.21,0,61.45,6.28,61.45,15.08,56,30.16,47.21,30.16ZM47.21,5c-5.45,0-8.38,4.19-8.38,10.05s2.93,10.05,8.38,10.05,8.38-4.19,8.38-10.05S52.66,5,47.21,5Z" fill="#934af4"/><path d="M88.09,18h-8l-.42.42V29.32l-.42.42h-5l-.42-.42V.84l.42-.42H88.09c5.86,0,10.05,2.93,10.05,8.8S94,18,88.09,18Zm0-12.57h-8l-.42.42v6.7l.42.42h8c2.51,0,4.19-.84,4.19-3.77S90.61,5.45,88.09,5.45Z" fill="#934af4"/><polygon points="149.14 0.42 144.11 0.42 143.69 0.84 143.69 11.35 143.28 11.76 131.24 11.76 131.24 17.63 143.28 17.63 143.69 18.05 143.69 29.32 144.11 29.74 149.14 29.74 149.56 29.32 149.56 0.84 149.14 0.42" fill="#934af4"/><path d="M188.22,29.74h-3.77l-.42-.42-2.09-5.45-.84-.42H170.63l-.84.42-2.09,5.45-.42.42h-3.77l-.42-.42V25.13L172.72.84l.42-.42h5.45l.42.42,9.63,24.3v4.19ZM176.07,8h-.42L171.89,18l.42.42h7.12l.42-.42Z" fill="#934af4"/><path d="M220.5,5.45h-8.38l-.42.42V29.32l-.42.42h-5l-.42-.42V5.86l-.42-.42H197L196.62,5V.84L197,.42H220.5l.42.42V5Z" fill="#934af4"/><path d="M23.88,5.45H15.5l-.42.42V29.32l-.42.42h-5l-.42-.42V5.86L8.8,5.45H.42L0,5V.84L.42.42H23.88l.42.42V5Z" fill="#934af4"/><polygon points="131.24 0.83 131.24 11.76 125.79 11.76 125.38 11.34 125.38 0.83 125.79 0.42 130.82 0.42 131.24 0.83" fill="#934af4"/><polygon points="131.24 17.63 131.24 29.32 130.82 29.74 125.79 29.74 125.38 29.32 125.38 18.05 125.79 17.63 131.24 17.63" fill="#934af4"/></g></g></svg>